<?xml version="1.0" encoding="UTF-8"?>
<svg id="_レイヤー_1" data-name="レイヤー 1" xmlns="http://www.w3.org/2000/svg" viewBox="0 0 1098 1098">
  <defs>
    <style>
      .cls-1 {
        fill: none;
      }

      .cls-1, .cls-2 {
        stroke: #fff;
        stroke-miterlimit: 10;
      }

      .cls-1, .cls-2, .cls-3 {
        stroke-linecap: round;
        stroke-width: 25px;
      }

      .cls-2 {
        fill: #fff;
      }

      .cls-3 {
        fill: #231815;
        stroke: #231815;
        stroke-linejoin: round;
      }
    </style>
  </defs>
  <path class="cls-3" d="m892.71,444.02c15.42-68.67,18-136.54,13.51-206.77-.24-3.69-.88-7.99-4.12-9.76-74.38,26.65-147.28,83.22-212.21,129.57-42.01-44.34-156.02-62.42-202.18-42.5-6.82-2.21-10.06-15.46-10.3-15.7-14.51-41.66-4.41-15.52-26.46-71.83-12.74-32.52-37.57-64.74-39.23-67.68-33.91-19.76-142.02,152.93-149.97,200.78-143.18,46.68-167.58,266.64-98.28,384.21,39.31,59.09,99.96,97.12,160.98,129.14,54.29,30.26,119.41,51.73,181.08,60.95,110.68,16.55,227.5-1.1,321.31-70.8,124.38-100.03,160.21-266.26,65.88-419.62Z"/>
  <path class="cls-1" d="m533.37,733.03c12.25,1.37,23.3,8.7,30.8,18.33,7.5,9.63,11.73,21.4,14.07,33.32.1.53.33,1.18.88,1.22s.39-1.11-.01-.75"/>
  <path class="cls-1" d="m417.7,686.4c32.91,53.12,75.45,56.01,84.87,54.96,31.68-3.56,39.31-15.74,48.44-22.43,17.29-12.69,32.26-49.16,33.93-44.79,8.17,7.37,2.63,47.21.67,74.27-5.74,79.3-45.34,97.42-59.3,99.2-16.05,2.04-33.12.43-46.92-8.01-13.8-8.44-23.47-24.7-20.95-40.68"/>
  <path class="cls-1" d="m727.52,593.79c7.12,10.03,29.27,29.04,40.12,38.01,16,13.25,38.64,15.95,59.4,15.29"/>
  <path class="cls-1" d="m188.43,614.97c3.68,7.55,13.43,15.28,23.15,16.75,17.55,2.66,35.45-2.62,51.31-10.57,12.33-6.18,24.59-14.94,28.97-28.02"/>
  <ellipse class="cls-2" cx="342.48" cy="531.6" rx="82.5" ry="56" transform="translate(-249.82 753.1) rotate(-77.71)"/>
  <ellipse class="cls-2" cx="679.62" cy="541.95" rx="75" ry="53.36" transform="translate(92.26 1182.73) rotate(-86.06)"/>
  <path class="cls-1" d="m506.05,363.04c11.27-5.31,22.85-10.59,35.24-11.88,13.29-1.38,26.57,1.91,39.53,5.18,5.45,1.37,10.93,2.76,16.06,5.04"/>
  <path class="cls-1" d="m500.05,401.04c11.27-5.31,22.85-10.59,35.24-11.88,13.29-1.38,26.57,1.91,39.53,5.18,5.45,1.37,10.93,2.76,16.06,5.04"/>
  <path class="cls-1" d="m590.88,311.82c-27.67,11.55-43.97,35.6-53.85,62.92-7.08,19.56-13.71,40.71-4.69,59.53"/>
  <line class="cls-1" x1="770.63" y1="806.15" x2="873.43" y2="932.15"/>
  <line class="cls-1" x1="272.43" y1="785.89" x2="219.43" y2="889.89"/>
  <line class="cls-1" x1="231.43" y1="749.89" x2="151.43" y2="842.89"/>
  <line class="cls-1" x1="188.43" y1="715.89" x2="117.43" y2="766.89"/>
  <line class="cls-1" x1="800.57" y1="757.7" x2="946.3" y2="836.08"/>
  <line class="cls-1" x1="821.84" y1="728.56" x2="980.57" y2="754.16"/>
</svg>